# xmcd CD database file
#
# Track frame offsets:
#	150
#	16704
#	34857
#	48628
#	66912
#	81730
#	99580
#	118633
#	136392
#	151443
#	167770
#	185553
#	203824
#	219334
#	238018
#	260823
#	286780
#	301513
#	315346
#
# Disc length: 4442 seconds
#
# Revision: 0
# Processed by: cddbd v1.5.1PL2 Copyright (c) Steve Scherf et al.
# Submitted via: CDex 1.51
#
DISCID=0b115813
DTITLE=Martin Zellar - Born Under
DYEAR=2003
DGENRE=Alt-Country
TTITLE0=lie to me
TTITLE1=something's gotta happen
TTITLE2=east side boys
TTITLE3=falling sky
TTITLE4=problem solved
TTITLE5=cross my heart
TTITLE6=lay this down gently
TTITLE7=summer kind of sad
TTITLE8=force a smile
TTITLE9=let go
TTITLE10=if you know what i mean
TTITLE11=best friend's girl
TTITLE12=love's gonna live here
TTITLE13=something's gotta happen
TTITLE14=falling sky
TTITLE15=brown-eyed boy
TTITLE16=lie to me
TTITLE17=problem solved
TTITLE18=let go
EXTD=YEAR: 2003
EXTT0=
EXTT1=
EXTT2=
EXTT3=
EXTT4=
EXTT5=
EXTT6=
EXTT7=
EXTT8=
EXTT9=
EXTT10=
EXTT11=
EXTT12=
EXTT13=
EXTT14=
EXTT15=
EXTT16=
EXTT17=
EXTT18=
PLAYORDER=
